<svg width="125" height="75" viewBox="0 0 125 75" fill="none" xmlns="http://www.w3.org/2000/svg">
<rect width="125" height="75" rx="37.5" fill="#FFEDD0"/>
<path d="M53.6348 23.4581C53.6348 23.4581 53.648 23.6415 53.652 23.9759L53.6536 24.1085C53.6539 24.1555 53.6561 24.2021 53.6512 24.2615C53.641 24.3856 53.6307 24.5096 53.6204 24.6336C53.608 24.7669 53.5965 24.9169 53.5792 25.0669C53.5615 25.2141 53.5446 25.3724 53.5213 25.5379C53.4121 26.3379 53.2458 27.1291 53.0239 27.9054C52.7683 28.8073 52.4088 29.8107 51.9137 30.8676C51.4203 31.9252 50.7839 33.0299 50.0031 34.1349C49.9084 34.2759 49.8044 34.4098 49.702 34.5474L49.5468 34.7539L49.4687 34.8577L49.4491 34.8838C49.5107 34.8271 49.354 34.9758 49.3673 34.9643L49.3592 34.9752L49.3265 35.0186C49.1536 35.2513 48.9712 35.479 48.7908 35.7135L48.7738 35.7354L48.7498 35.7624L48.7014 35.8167L48.6042 35.9254L48.406 36.1412L48.0021 36.5749L47.9001 36.6835L47.8042 36.7817C47.7401 36.8477 47.6753 36.9128 47.6097 36.9772L47.2141 37.3681C46.1438 38.4049 44.9282 39.3705 43.6079 40.228C42.2692 41.0948 40.8504 41.8313 39.3711 42.4272C37.8907 43.0253 36.3571 43.4822 34.7908 43.7919C33.2424 44.0961 31.6922 44.2484 30.1957 44.2561C28.6988 44.2643 27.2571 44.1312 25.9174 43.8923C25.2469 43.7785 24.603 43.6231 23.9873 43.4633C23.3733 43.2885 22.7864 43.1125 22.2354 42.9031L21.8265 42.7538C21.6921 42.7042 21.5615 42.6449 21.4319 42.5918C21.1727 42.484 20.9215 42.3756 20.6788 42.2669C20.4369 42.1547 20.2044 42.0379 19.9798 41.9245L19.6487 41.7568C19.5403 41.7019 19.4364 41.6388 19.333 41.5816C18.9213 41.3467 18.5403 41.1288 18.2019 40.8979C17.8621 40.671 17.5527 40.4663 17.2856 40.2568L16.9075 39.9633L16.5808 39.6973C16.3814 39.5266 16.2171 39.374 16.0844 39.2509C15.8195 39.0047 15.6856 38.864 15.6856 38.864C14.4393 37.5545 14.4906 35.4827 15.8002 34.2364C16.3251 33.7352 17.0024 33.4236 17.7245 33.351L18.1171 33.3114C18.1171 33.3114 18.2817 33.2947 18.5763 33.2808C18.7236 33.2739 18.9043 33.2646 19.1106 33.2625L19.447 33.2428L19.821 33.2285C20.0805 33.226 20.3716 33.2007 20.678 33.1908C20.9834 33.1845 21.3162 33.1534 21.6605 33.1396C22.0054 33.1243 22.3723 33.0861 22.7475 33.0685C23.1279 33.0275 23.5169 33.0101 23.9218 32.9627L24.2265 32.9324L24.3799 32.9198L24.5352 32.9006L24.8482 32.8623L25.1637 32.8303C25.3762 32.7993 25.5905 32.7691 25.8062 32.7447L25.9684 32.7247L26.1318 32.6977L26.4601 32.6498C27.3393 32.5166 28.245 32.3552 29.1633 32.1581C31.0001 31.7665 32.8873 31.2334 34.7282 30.5506C35.6475 30.2086 36.5543 29.834 37.447 29.4276C38.3375 29.0245 39.2045 28.5883 40.0492 28.1398L40.3617 27.9671C40.4137 27.9382 40.466 27.9099 40.5192 27.8826L40.5985 27.8414L40.6663 27.8048L40.9369 27.6602L41.0734 27.589L41.1429 27.5548L41.1777 27.5378L41.1952 27.5291L41.2184 27.514C41.4665 27.3528 41.7079 27.189 41.9538 27.0352L41.9996 27.0062L42.0111 26.9989C42.031 26.9814 41.8806 27.124 41.9486 27.061L41.967 27.0497L42.0406 27.0044L42.1878 26.9143L42.4805 26.7344C43.2541 26.2521 43.9966 25.7673 44.6841 25.2869C45.3281 24.838 45.9635 24.3768 46.5899 23.9036C47.1685 23.4696 47.6787 23.0662 48.1106 22.7265C48.2166 22.6406 48.3221 22.5609 48.4195 22.4841C48.5155 22.4093 48.604 22.3453 48.6881 22.2813L48.9223 22.1049C48.9588 22.0809 48.9967 22.0462 49.0321 22.0163L49.1328 21.93C49.3868 21.7124 49.5333 21.6013 49.5333 21.6013C50.6607 20.7469 52.2672 20.9682 53.1216 22.0955C53.422 22.4899 53.6004 22.9636 53.6348 23.4581Z" fill="#FFAE2C"/>
<path d="M16.8305 36.2493C16.4294 37.1649 16.0744 37.2861 15.1325 36.8736C14.1904 36.4611 14.0387 36.118 14.4396 35.2024C14.8406 34.2867 17.2315 35.3336 16.8305 36.2493Z" fill="#B28E7F"/>
<path d="M55.7056 24.6346C55.7056 24.6346 55.7495 24.8374 55.8072 25.2105L55.83 25.3585C55.8378 25.4109 55.8477 25.4626 55.8517 25.5298L55.8764 25.9504C55.8838 26.1013 55.8948 26.2708 55.8993 26.4411C55.9029 26.6084 55.9091 26.788 55.9094 26.9766C55.9146 27.8879 55.8546 28.7984 55.73 29.7012C55.5878 30.7497 55.3456 31.928 54.9604 33.1877C54.5772 34.4479 54.0417 35.7836 53.3449 37.1423C53.2615 37.3148 53.1666 37.4811 53.074 37.6511L52.9335 37.9066L52.8627 38.035L52.8449 38.0672C52.9047 37.994 52.7532 38.1851 52.7662 38.1702L52.7589 38.1836L52.7294 38.2373C52.5732 38.5248 52.4055 38.8082 52.2412 39.0989L52.2257 39.1261L52.2032 39.1601L52.1577 39.2283L52.0665 39.3653L51.8793 39.6379L51.497 40.1867L51.4002 40.3242L51.3086 40.4492C51.2478 40.533 51.1855 40.6158 51.1225 40.6985L50.7425 41.1981C49.7114 42.5268 48.5066 43.799 47.1676 44.9671C45.8095 46.1485 44.3412 47.197 42.7829 48.098C41.2238 49.0016 39.5828 49.756 37.8819 50.3511C36.2 50.9372 34.492 51.3539 32.821 51.6003C31.1497 51.8475 29.5175 51.9279 27.9825 51.8739C27.2152 51.8532 26.471 51.7821 25.7576 51.7014C25.0437 51.6036 24.3599 51.5002 23.7109 51.3539L23.2303 51.2521C23.0723 51.2181 22.917 51.1726 22.7636 51.1338C22.4648 51.0567 22.1671 50.9756 21.8705 50.8905C21.5824 50.8036 21.304 50.7101 21.0349 50.619L20.6383 50.4842C20.5084 50.4401 20.3823 50.3861 20.2577 50.3387C20.0175 50.245 19.7784 50.1484 19.5406 50.0489C19.3105 49.9586 19.0933 49.8523 18.8851 49.7545C18.4693 49.5551 18.0911 49.3754 17.7593 49.1837C17.464 49.0184 17.1716 48.8481 16.8821 48.6728C16.6715 48.5355 16.4632 48.3948 16.2571 48.2507C15.9219 48.0176 15.7499 47.8818 15.7499 47.8818C14.1492 46.6166 13.8772 44.2934 15.1423 42.6926C15.6492 42.0492 16.3564 41.5933 17.1518 41.3974L17.5842 41.2906C17.5842 41.2906 17.7654 41.2458 18.0924 41.1835C18.2558 41.1525 18.4562 41.1136 18.687 41.0758C18.9199 41.0287 19.1842 40.9782 19.4749 40.9271C19.7645 40.8831 20.0858 40.8085 20.4266 40.7488C20.7668 40.6932 21.1337 40.6056 21.5163 40.5353C21.8993 40.4634 22.3032 40.3624 22.7197 40.2832C22.9315 40.2307 23.1441 40.1814 23.3574 40.1353C23.5732 40.0899 23.7927 40.0322 24.015 39.9782L24.3507 39.8959L24.5201 39.8575L24.6905 39.8114L25.0341 39.7188L25.3816 39.6329L25.732 39.5308C25.9093 39.4827 26.0866 39.4347 26.2639 39.3868L26.4422 39.3307C26.5613 39.2937 26.6813 39.2603 26.8015 39.2249C27.7626 38.9363 28.7491 38.6119 29.7438 38.2457C31.7341 37.5161 33.758 36.6205 35.7064 35.5647C36.6793 35.0365 37.6331 34.4737 38.5659 33.8776C39.4968 33.2857 40.3964 32.6604 41.2689 32.0249L41.5907 31.7822C41.6442 31.7415 41.6983 31.7017 41.7531 31.6628L41.8352 31.6041L41.9052 31.5524L42.1846 31.3478L42.3258 31.2465L42.3981 31.1972L42.4343 31.1726L42.4525 31.1602L42.476 31.1395C42.7277 30.92 42.9714 30.6986 43.2216 30.4876L43.2682 30.4478L43.2798 30.4379C43.2993 30.4152 43.154 30.5983 43.2198 30.5172L43.2386 30.5017L43.3137 30.4395L43.4638 30.3154L43.7622 30.0679C44.55 29.406 45.3026 28.7463 45.9945 28.1002C46.6427 27.4962 47.2793 26.8799 47.9041 26.2516C48.4816 25.6746 48.9876 25.1429 49.4162 24.6946C49.521 24.5817 49.6262 24.4758 49.7229 24.3745C49.8183 24.2756 49.907 24.1902 49.9907 24.1053L50.2244 23.8709C50.2613 23.8383 50.2982 23.7935 50.3329 23.7543L50.4317 23.6419C50.681 23.3584 50.8271 23.211 50.8271 23.211C51.9509 22.077 53.7812 22.0688 54.9152 23.1926C55.3136 23.586 55.5883 24.0872 55.7056 24.6346Z" fill="#FFB93E"/>
<path d="M16.6137 44.7783C16.3112 45.8652 13.4732 45.0754 13.7757 43.9885C14.0782 42.9016 14.4557 42.7098 15.5739 43.021C16.6921 43.3321 16.9162 43.6913 16.6137 44.7783Z" fill="#A07562"/>
<path d="M54.0838 15.6491C53.9705 15.618 53.852 15.6104 53.7356 15.6268C53.6147 15.5232 53.4793 15.438 53.3336 15.3739C52.7482 15.1176 52.1119 15.6835 51.7881 16.0383C50.8027 17.1176 53.0202 18.5334 51.4445 21.1405C51.2224 21.5079 51.4118 22.454 51.7507 22.6024C52.133 22.7698 52.5835 22.6478 52.9183 22.3232C52.9087 22.3465 52.8997 22.3696 52.8897 22.3931C52.6999 22.8388 53.062 23.8659 53.4643 23.9778C54.0617 24.1441 54.7122 23.7322 54.9763 23.0273C55.719 21.045 56.5124 16.325 54.0838 15.6491Z" fill="#8E6049"/>
<path d="M59.2242 23.1937C59.2242 23.1937 59.3251 23.3679 59.4916 23.6965L59.5576 23.8269C59.5807 23.8734 59.6053 23.9173 59.6303 23.9819L59.7852 24.3804C59.8395 24.5236 59.9029 24.6841 59.9606 24.8459C60.0162 25.0046 60.0779 25.1739 60.1376 25.3539C60.4285 26.2227 60.6602 27.1101 60.8312 28.0102C61.0322 29.0554 61.1838 30.256 61.2311 31.5801C61.2805 32.9041 61.2148 34.3493 61.0094 35.8698C60.9879 36.061 60.954 36.2504 60.9233 36.4425L60.876 36.7315L60.852 36.8768L60.846 36.9133C60.8765 36.8186 60.8009 37.0629 60.8079 37.043L60.8053 37.0579L60.7952 37.118C60.7427 37.4391 60.6791 37.7607 60.6206 38.0876L60.615 38.1183L60.6052 38.1582L60.5854 38.2385L60.5454 38.3994C60.5174 38.5069 60.4892 38.6143 60.4611 38.7218L60.2866 39.3721L60.2419 39.5352L60.1977 39.6842C60.1684 39.7841 60.138 39.8837 60.1065 39.9829L59.9178 40.5836C59.3921 42.1861 58.6972 43.7983 57.8417 45.3586C56.9733 46.9363 55.9595 48.4295 54.8135 49.8187C53.6645 51.217 52.3812 52.5034 51.0178 53.6441C49.6546 54.7854 48.211 55.781 46.7425 56.6064C45.2743 57.4329 43.7856 58.0933 42.3405 58.5974C41.6205 58.8552 40.9039 59.0585 40.213 59.2431C39.5153 59.4116 38.8439 59.5651 38.1893 59.6669L37.707 59.7484C37.5482 59.7749 37.3878 59.7897 37.2316 59.8101C36.9185 59.8492 36.6131 59.8836 36.3158 59.9132C36.0174 59.9386 35.7256 59.9549 35.4434 59.9702L35.0271 59.9922C34.8907 59.9996 34.7543 59.9964 34.6217 59.9988C34.0895 60.001 33.5966 60.0037 33.138 59.9701C32.6803 59.9412 32.2646 59.9176 31.8875 59.8656L31.3553 59.7956L30.8885 59.7242C30.5989 59.6723 30.3537 59.6189 30.1558 59.5758C29.7601 59.4895 29.5511 59.4315 29.5511 59.4315C27.6057 58.8919 26.4661 56.8773 27.0058 54.932C27.2399 54.0833 27.7735 53.3481 28.5079 52.8626L28.8687 52.6241C28.8687 52.6241 29.0219 52.5229 29.3053 52.3554C29.4469 52.2717 29.6204 52.1683 29.8232 52.0575L30.145 51.8612L30.5072 51.6495C30.7626 51.5097 31.0368 51.3301 31.3349 51.1569C31.634 50.9879 31.9465 50.779 32.2803 50.5802C32.6138 50.3797 32.9566 50.1441 33.3191 49.9232C33.6737 49.6766 34.0498 49.4477 34.4251 49.1793L34.7105 48.9828L34.8556 48.8862L34.9988 48.782L35.2878 48.5723L35.5827 48.3666L35.8745 48.145L36.1716 47.927L36.3211 47.8174L36.468 47.7003L36.7662 47.4705C37.562 46.8502 38.3666 46.1832 39.1602 45.4707C39.9537 44.7583 40.7397 44.0048 41.4981 43.2097C42.2569 42.4152 42.9875 41.5793 43.6848 40.7182C45.0755 38.9923 46.3225 37.1562 47.3927 35.3185L47.5886 34.9729C47.621 34.9154 47.654 34.8581 47.6885 34.8016L47.7395 34.7165L47.7816 34.6427L47.9502 34.3508L48.0362 34.2057L48.0811 34.1337L48.1036 34.0977L48.1149 34.0796L48.1282 34.0515C48.272 33.752 48.4086 33.4541 48.5539 33.163L48.5809 33.1083L48.5876 33.0947C48.5977 33.0652 48.525 33.2999 48.5582 33.1956L48.5689 33.1742L48.6117 33.0889L48.6974 32.9188L48.8675 32.5802C49.3123 31.679 49.7228 30.7974 50.0822 29.9549C50.418 29.1701 50.7382 28.3787 51.0427 27.5812C51.3246 26.8506 51.5596 26.1899 51.759 25.6339C51.8066 25.4951 51.857 25.3624 51.9019 25.2371C51.9465 25.115 51.9899 25.0098 52.0297 24.9056L52.1416 24.6179C52.161 24.5774 52.1758 24.5217 52.1907 24.473L52.233 24.3331C52.3398 23.9805 52.4088 23.7914 52.4088 23.7914C53.1245 21.8321 55.2929 20.8241 57.2521 21.5397C58.1154 21.8548 58.7963 22.4564 59.2242 23.1937Z" fill="#FFCE6C"/>
<path d="M58.5539 32.7073C58.5539 32.7073 58.6147 32.9897 58.6763 33.4782C58.6843 33.5393 58.693 33.6037 58.6999 33.671L58.7112 33.7743L58.7166 33.8897C58.7247 34.0474 58.7257 34.218 58.7303 34.4021C58.7326 34.585 58.7333 34.7844 58.7282 34.9883L58.6865 35.619C58.6584 36.0613 58.582 36.5311 58.4961 37.0311C58.4771 37.1569 58.4472 37.2809 58.4183 37.4071L58.3271 37.7898C58.2632 38.0474 58.2012 38.313 58.1128 38.5733C58.0288 38.8404 57.9414 39.1064 57.8507 39.3712C57.7504 39.636 57.641 39.901 57.5315 40.1688C57.4738 40.3012 57.4231 40.438 57.3583 40.568L57.1675 40.9612L56.972 41.3542C56.9084 41.4864 56.8366 41.6139 56.763 41.7404C56.6184 41.9945 56.4714 42.2472 56.3221 42.4985C56.1651 42.7417 56.005 42.9829 55.8416 43.2218C55.6846 43.4627 55.5101 43.6882 55.3383 43.9107C55.1643 44.1316 54.9994 44.3549 54.8189 44.5596C54.4589 44.9699 54.1105 45.364 53.7464 45.7058L53.481 45.9612C53.3931 46.0441 53.3089 46.1278 53.2186 46.2033C53.0389 46.3548 52.8702 46.5044 52.7005 46.6403C52.3703 46.9206 52.0433 47.1502 51.754 47.3512C51.6083 47.4507 51.4742 47.5453 51.3457 47.6273C51.2261 47.7007 51.1054 47.7722 50.9837 47.8421C50.8138 47.9411 50.6416 48.036 50.4672 48.1267C50.3461 48.1894 50.2801 48.2206 50.2801 48.2206C50.1289 48.2922 49.959 48.3142 49.7946 48.2835C49.6302 48.2528 49.4796 48.1709 49.3645 48.0496C49.2494 47.9282 49.1755 47.7737 49.1534 47.6079C49.1314 47.4421 49.1622 47.2735 49.2416 47.1263L49.2553 47.1013L49.3517 46.925C49.4158 46.8118 49.5104 46.647 49.6362 46.4459C49.6979 46.3441 49.7689 46.2346 49.8457 46.1157C49.9176 45.992 49.999 45.8626 50.0845 45.7236C50.256 45.4464 50.459 45.146 50.6629 44.8071C50.7649 44.6377 50.8794 44.4697 50.9929 44.2921C51.1036 44.1123 51.215 43.9254 51.3339 43.7377C51.5773 43.366 51.8094 42.9604 52.065 42.5554C52.1311 42.4556 52.1902 42.3502 52.2508 42.2448L52.4372 41.9294L52.629 41.6131C52.6941 41.5077 52.7511 41.397 52.814 41.2893C52.9355 41.0714 53.0648 40.8563 53.1904 40.6383C53.3092 40.416 53.4303 40.1951 53.5539 39.9756C53.6821 39.758 53.7893 39.5306 53.9086 39.3099C54.0254 39.0882 54.1493 38.8705 54.2542 38.6467C54.3642 38.4271 54.4762 38.2084 54.5901 37.9908C54.691 37.7733 54.795 37.5572 54.9021 37.3426C55.012 37.1317 55.1029 36.9185 55.1997 36.7114L55.3449 36.4043C55.3947 36.3053 55.4412 36.2048 55.4843 36.1028C55.569 35.9073 55.6561 35.7128 55.7456 35.5195C55.8399 35.3326 55.9102 35.1464 55.9864 34.9687L56.2132 34.4576C56.2855 34.2973 56.3415 34.1473 56.4054 34.004C56.4694 33.8615 56.5259 33.7262 56.5853 33.6012L56.6282 33.5089L56.6651 33.4117C56.6886 33.3483 56.7133 33.2882 56.7364 33.2311C56.9187 32.7736 57.0485 32.5155 57.0485 32.5155C57.1443 32.3249 57.312 32.1801 57.5146 32.1131C57.7171 32.0461 57.9381 32.0623 58.1287 32.1581C58.3538 32.271 58.5035 32.4793 58.5539 32.7073Z" fill="#FFDF95"/>
<path d="M29.2294 56.2262C29.3419 57.3489 29.0597 57.6646 27.9048 57.7804C26.75 57.8961 26.4108 57.6427 26.2982 56.5201C26.1857 55.3975 26.4679 55.0818 27.6227 54.966C28.7776 54.8502 29.1168 55.1036 29.2294 56.2262Z" fill="#8E6049"/>
<path d="M56.0209 23.472C56.6379 23.4102 57.0946 22.7903 57.0849 22.0375C57.0578 19.9209 58.6857 16.6341 56.4414 15.4861C53.7844 14.127 51.6956 15.9941 51.5734 16.5222C51.2018 18.1293 54.0368 18.3886 54.931 22.8843C55.0257 23.3594 55.6053 23.5136 56.0209 23.472Z" fill="#966C5A"/>
<path d="M55.7055 18.6795C54.9915 19.8374 55.7063 23.5035 56.0209 23.472C56.6379 23.4101 58.2815 14.502 55.7055 18.6795Z" fill="#1AC84B"/>
</svg>
