<svg width="111" height="35" viewBox="0 0 111 35" fill="none" xmlns="http://www.w3.org/2000/svg">
<path d="M47.56 11.704V15.512H39.44V19.852H45.712V23.492H39.44V31.5H34.652V11.704H47.56ZM49.5712 11.48C49.5712 10.752 49.8325 10.1547 50.3552 9.688C50.8779 9.20267 51.5685 8.96 52.4272 8.96C53.2859 8.96 53.9765 9.20267 54.4992 9.688C55.0219 10.1547 55.2832 10.752 55.2832 11.48C55.2832 12.1893 55.0219 12.7867 54.4992 13.272C53.9765 13.7387 53.2859 13.972 52.4272 13.972C51.5685 13.972 50.8779 13.7387 50.3552 13.272C49.8325 12.7867 49.5712 12.1893 49.5712 11.48ZM54.8072 15.876V31.5H50.0192V15.876H54.8072ZM66.9609 27.384V31.5H64.8049C62.9756 31.5 61.5476 31.052 60.5209 30.156C59.5129 29.2413 59.0089 27.7387 59.0089 25.648V19.908H56.9089V15.876H59.0089V12.04H63.7969V15.876H66.9329V19.908H63.7969V25.732C63.7969 26.348 63.9183 26.7773 64.1609 27.02C64.4223 27.2627 64.8516 27.384 65.4489 27.384H66.9609ZM91.912 11.844V31.5H87.124V19.208L82.868 31.5H78.724L74.44 19.18V31.5H69.652V11.844H75.504L80.852 25.536L86.088 11.844H91.912ZM110.058 23.268C110.058 23.66 110.012 24.0893 109.918 24.556H99.0824C99.1384 25.732 99.4371 26.5813 99.9784 27.104C100.52 27.608 101.21 27.86 102.05 27.86C102.76 27.86 103.348 27.6827 103.814 27.328C104.281 26.9733 104.589 26.516 104.738 25.956H109.806C109.601 27.0573 109.153 28.0467 108.462 28.924C107.772 29.7827 106.894 30.464 105.83 30.968C104.766 31.4533 103.581 31.696 102.274 31.696C100.744 31.696 99.3811 31.3787 98.1864 30.744C97.0104 30.0907 96.0864 29.1573 95.4144 27.944C94.7424 26.7307 94.4064 25.312 94.4064 23.688C94.4064 22.0453 94.7331 20.6267 95.3864 19.432C96.0584 18.2187 96.9917 17.2947 98.1864 16.66C99.3811 16.0067 100.744 15.68 102.274 15.68C103.824 15.68 105.186 15.9973 106.362 16.632C107.538 17.2667 108.444 18.1627 109.078 19.32C109.732 20.4587 110.058 21.7747 110.058 23.268ZM105.214 22.54C105.233 21.5133 104.953 20.748 104.374 20.244C103.814 19.7213 103.114 19.46 102.274 19.46C101.397 19.46 100.669 19.7213 100.09 20.244C99.5117 20.7667 99.1851 21.532 99.1104 22.54H105.214Z" fill="#202020"/>
<path fill-rule="evenodd" clip-rule="evenodd" d="M0 10.2741C0 5.99464 5.35289 5.05194 7.80629 8.55836C10.2648 12.072 11.7134 16.3468 11.7301 20.9596C11.7301 16.3873 13.1371 12.1443 15.5409 8.64121C17.8898 5.21815 23.0647 6.12268 23.0647 10.2741V15.7658C23.0647 22.1349 17.9015 27.2981 11.5324 27.2981C5.16321 27.2981 0 22.1349 0 15.7657V10.2741Z" fill="#FC8019"/>
</svg>
